# xmcd CD database file
#
# Track frame offsets:
#	150
#	17847
#	40442
#	65432
#	98590
#	131040
#	149365
#	189160
#	209952
#	218727
#	245222
#	261787
#	280480
#
# Disc length: 4401 seconds
#
# Revision: 0
# Processed by: cddbd v1.4PL0 Copyright (c) Steve Scherf et al.
# Submitted via: CDex 1.50beta10
#
DISCID=d2112f0d
DTITLE=Glenn Basham - Violin and (harmonica tr. 5)  Simaon Salz - Guitar (tr. 1-7),  Kevin Mauldin - Bass (tr. 1,2,4-6,8,10-12),  Eric Bogart - Drums (tr. 2,5,6,8,11) and Guitar (tr. 10,12) - (lowers) Plays The Standards
DYEAR=1900
DGENRE=Jazz
TTITLE0=My One and Only Love
TTITLE1=If I Only Had a Brain
TTITLE2=Blue Moon
TTITLE3=Hungarian Dance No. Five
TTITLE4=Body and Soul
TTITLE5=Sweet Georgia Brown
TTITLE6=Paganini's 24/7/365
TTITLE7=Don't Get Around Much Anymore
TTITLE8=Stompin' at the Savoy
TTITLE9=In A Sentimental Mood
TTITLE10=Gabe's Groove
TTITLE11=All the Things You Are
TTITLE12=Emily
EXTD=
EXTT0=
EXTT1=
EXTT2=
EXTT3=
EXTT4=
EXTT5=
EXTT6=
EXTT7=
EXTT8=
EXTT9=
EXTT10=
EXTT11=
EXTT12=
PLAYORDER=
